<mxfile host="app.diagrams.net" modified="2023-09-02T04:12:46.265Z" agent="Mozilla/5.0 (Macintosh; Intel Mac OS X 10_15_7) AppleWebKit/537.36 (KHTML, like Gecko) Chrome/116.0.0.0 Safari/537.36 Edg/116.0.1938.62" etag="r21nWIvIJ8dhfdXCiqjG" version="21.7.2" type="device">
  <diagram name="第 1 页" id="_YWL4b58uMa7VJi9v08Z">
    <mxGraphModel dx="954" dy="648" grid="1" gridSize="10" guides="1" tooltips="1" connect="1" arrows="1" fold="1" page="1" pageScale="1" pageWidth="827" pageHeight="1169" math="0" shadow="0">
      <root>
        <mxCell id="0" />
        <mxCell id="1" parent="0" />
        <mxCell id="cHvUDJ7DLtjorXMy75gk-1" value="RegionData&lt;br /&gt;(in Memory)" style="ellipse;shape=cloud;whiteSpace=wrap;html=1;" diagramCategory="general" diagramName="Cloud" vertex="1" parent="1">
          <mxGeometry x="313" y="210" width="140" height="80" as="geometry" />
        </mxCell>
        <mxCell id="cHvUDJ7DLtjorXMy75gk-2" style="edgeStyle=orthogonalEdgeStyle;rounded=0;orthogonalLoop=1;jettySize=auto;html=1;exitX=0.5;exitY=1;exitDx=0;exitDy=0;entryX=0.5;entryY=0;entryDx=0;entryDy=0;entryPerimeter=0;startArrow=none;startFill=0;endArrow=blockThin;endFill=1;" edge="1" parent="1" source="cHvUDJ7DLtjorXMy75gk-3" target="cHvUDJ7DLtjorXMy75gk-6">
          <mxGeometry relative="1" as="geometry" />
        </mxCell>
        <mxCell id="cHvUDJ7DLtjorXMy75gk-3" value="RegionPersister" style="rounded=0;whiteSpace=wrap;html=1;fillColor=#FFE599;" diagramCategory="general" diagramName="Rectangle" vertex="1" parent="1">
          <mxGeometry x="190" y="320" width="120" height="50" as="geometry" />
        </mxCell>
        <mxCell id="cHvUDJ7DLtjorXMy75gk-4" value="" style="curved=1;endArrow=none;html=1;startArrow=block;startFill=1;endFill=0;exitX=0.5;exitY=0;exitDx=0;exitDy=0;entryX=0.097;entryY=0.657;entryDx=0;entryDy=0;entryPerimeter=0;" diagramCategory="general" diagramName="curved" edge="1" parent="1" source="cHvUDJ7DLtjorXMy75gk-3" target="cHvUDJ7DLtjorXMy75gk-1">
          <mxGeometry width="50" height="50" relative="1" as="geometry">
            <mxPoint x="260" y="320" as="sourcePoint" />
            <mxPoint x="310" y="270" as="targetPoint" />
            <Array as="points">
              <mxPoint x="250" y="320" />
              <mxPoint x="250" y="300" />
              <mxPoint x="260" y="280" />
              <mxPoint x="300" y="263" />
            </Array>
          </mxGeometry>
        </mxCell>
        <mxCell id="cHvUDJ7DLtjorXMy75gk-5" value="" style="curved=1;endArrow=none;html=1;startArrow=blockThin;startFill=1;endFill=0;entryX=0.96;entryY=0.7;entryDx=0;entryDy=0;entryPerimeter=0;exitX=0.5;exitY=0;exitDx=0;exitDy=0;exitPerimeter=0;" diagramCategory="general" diagramName="curved" edge="1" parent="1" source="cHvUDJ7DLtjorXMy75gk-7" target="cHvUDJ7DLtjorXMy75gk-1">
          <mxGeometry width="50" height="50" relative="1" as="geometry">
            <mxPoint x="520" y="470.0000000000001" as="sourcePoint" />
            <mxPoint x="550" y="280" as="targetPoint" />
            <Array as="points">
              <mxPoint x="520" y="330" />
              <mxPoint x="510" y="280" />
              <mxPoint x="480" y="266" />
            </Array>
          </mxGeometry>
        </mxCell>
        <mxCell id="cHvUDJ7DLtjorXMy75gk-6" value="&lt;br /&gt;Page&lt;br /&gt;Storage" style="shape=mxgraph.flowchart.database;whiteSpace=wrap;html=1;fillColor=#ffffff;strokeColor=#007FFF;strokeWidth=2" diagramCategory="Flowchart" diagramName="Database" vertex="1" parent="1">
          <mxGeometry x="215" y="470" width="70" height="70" as="geometry" />
        </mxCell>
        <mxCell id="cHvUDJ7DLtjorXMy75gk-7" value="&lt;br /&gt;Delte Tree" style="shape=mxgraph.flowchart.database;whiteSpace=wrap;html=1;fillColor=#ffffff;strokeColor=#007FFF;strokeWidth=2" diagramCategory="Flowchart" diagramName="Database" vertex="1" parent="1">
          <mxGeometry x="483" y="470" width="70" height="70" as="geometry" />
        </mxCell>
        <mxCell id="cHvUDJ7DLtjorXMy75gk-8" value="&lt;font color=&quot;#cc0000&quot;&gt;&lt;b&gt;Uncommitted Data&lt;/b&gt;&lt;/font&gt;" style="text;html=1;strokeColor=none;fillColor=#ffffff;align=center;verticalAlign=middle;whiteSpace=wrap;rounded=0;" diagramCategory="general" diagramName="text" vertex="1" parent="1">
          <mxGeometry x="120" y="270" width="120" height="20" as="geometry" />
        </mxCell>
        <mxCell id="cHvUDJ7DLtjorXMy75gk-9" value="persistRegion" style="text;html=1;strokeColor=none;fillColor=none;align=center;verticalAlign=middle;whiteSpace=wrap;rounded=0;" diagramCategory="general" diagramName="text" vertex="1" parent="1">
          <mxGeometry x="238" y="410" width="102" height="20" as="geometry" />
        </mxCell>
        <mxCell id="cHvUDJ7DLtjorXMy75gk-10" value="tryFlushRegionCacheInStorage" style="text;html=1;strokeColor=none;fillColor=none;align=center;verticalAlign=middle;whiteSpace=wrap;rounded=0;" diagramCategory="general" diagramName="text" vertex="1" parent="1">
          <mxGeometry x="336" y="370" width="180" height="20" as="geometry" />
        </mxCell>
        <mxCell id="cHvUDJ7DLtjorXMy75gk-11" value="&lt;font color=&quot;#cc0000&quot;&gt;&lt;b&gt;committed Data&lt;/b&gt;&lt;/font&gt;" style="text;html=1;strokeColor=none;fillColor=none;align=center;verticalAlign=middle;whiteSpace=wrap;rounded=0;" diagramCategory="general" diagramName="text" vertex="1" parent="1">
          <mxGeometry x="500" y="270" width="120" height="20" as="geometry" />
        </mxCell>
        <mxCell id="cHvUDJ7DLtjorXMy75gk-12" value="" style="rounded=1;whiteSpace=wrap;html=1;fillColor=none;dashed=1;" vertex="1" parent="1">
          <mxGeometry x="108" y="185" width="550" height="390" as="geometry" />
        </mxCell>
      </root>
    </mxGraphModel>
  </diagram>
</mxfile>
